<?xml version="1.0" encoding="UTF-8"?>
<svg width="34px" height="34px" viewBox="0 0 34 34" version="1.1" xmlns="http://www.w3.org/2000/svg" xmlns:xlink="http://www.w3.org/1999/xlink">
    <title>comment</title>
    <g id="Page-1" stroke="none" stroke-width="1" fill="none" fill-rule="evenodd">
        <g id="Artboard" transform="translate(-61.000000, -84.000000)">
            <g id="comment" transform="translate(61.000000, 84.000000)">
                <polygon id="Path" points="0 0 33 0 33 33 0 33"></polygon>
                <path d="M29.6,8.6 L26.8,8.6 L26.8,21.2 L8.6,21.2 L8.6,24 C8.6,24.77 9.23,25.4 10,25.4 L25.4,25.4 L31,31 L31,10 C31,9.23 30.37,8.6 29.6,8.6 Z M24,17 L24,4.4 C24,3.63 23.37,3 22.6,3 L4.4,3 C3.63,3 3,3.63 3,4.4 L3,24 L8.6,18.4 L22.6,18.4 C23.37,18.4 24,17.77 24,17 Z" id="Shape" fill="#3F3F3F" fill-rule="nonzero"></path>
            </g>
        </g>
    </g>
</svg>