<?xml version="1.0" encoding="UTF-8"?>
<svg width="34px" height="34px" viewBox="0 0 34 34" version="1.1" xmlns="http://www.w3.org/2000/svg" xmlns:xlink="http://www.w3.org/1999/xlink">
    <title>share</title>
    <g id="Page-1" stroke="none" stroke-width="1" fill="none" fill-rule="evenodd">
        <g id="Artboard" transform="translate(-193.000000, -84.000000)">
            <g id="share" transform="translate(193.021978, 84.637363)">
                <polygon id="Path" points="-0.021978022 0.362637363 32.978022 0.362637363 32.978022 33.3626374 -0.021978022 33.3626374"></polygon>
                <path d="M26.2002442,26.5848596 L6.75579976,26.5848596 L6.75579976,7.14041514 L16.478022,7.14041514 L16.478022,4.36263736 L6.75579976,4.36263736 C5.21413309,4.36263736 3.97802198,5.61263736 3.97802198,7.14041514 L3.97802198,26.5848596 C3.97802198,28.1126374 5.21413309,29.3626374 6.75579976,29.3626374 L26.2002442,29.3626374 C27.728022,29.3626374 28.978022,28.1126374 28.978022,26.5848596 L28.978022,16.8626374 L26.2002442,16.8626374 L26.2002442,26.5848596 Z M19.2557998,4.36263736 L19.2557998,7.14041514 L24.2419109,7.14041514 L10.5891331,20.7931929 L12.5474664,22.7515263 L26.2002442,9.09874847 L26.2002442,14.0848596 L28.978022,14.0848596 L28.978022,4.36263736 L19.2557998,4.36263736 Z" id="Shape" fill="#3F3F3F" fill-rule="nonzero"></path>
            </g>
        </g>
    </g>
</svg>