<?xml version="1.0" encoding="utf-8"?>
<!-- Generator: Adobe Illustrator 24.0.1, SVG Export Plug-In . SVG Version: 6.00 Build 0)  -->
<svg version="1.1" id="Layer_1" xmlns="http://www.w3.org/2000/svg" xmlns:xlink="http://www.w3.org/1999/xlink" x="0px" y="0px"
	 viewBox="0 0 24 24" style="enable-background:new 0 0 24 24;" xml:space="preserve">
<g>
	<path d="M12,2.9c5,0,9.1,4.1,9.1,9.1c0,5-4.1,9.1-9.1,9.1c-1.3,0-2.6-0.3-3.8-0.8l-0.5-0.2l-0.5,0.1l-3.6,0.6l0.9-2.1l0.4-0.9
		l-0.5-0.8c-1-1.5-1.6-3.3-1.6-5.1C2.9,7,7,2.9,12,2.9 M12,1.2C6,1.2,1.2,6,1.2,12c0,2.2,0.7,4.3,1.9,6.1L1.2,22
		c-0.2,0.4,0.1,0.9,0.5,0.9c0,0,0.1,0,0.1,0l5.7-0.9c1.4,0.6,2.9,1,4.5,1c6,0,10.8-4.9,10.8-10.8S18,1.2,12,1.2L12,1.2z"/>
</g>
</svg>
