<?xml version="1.0" encoding="utf-8"?>
<!-- Generator: Adobe Illustrator 24.0.1, SVG Export Plug-In . SVG Version: 6.00 Build 0)  -->
<svg version="1.1" id="Layer_1" xmlns="http://www.w3.org/2000/svg" xmlns:xlink="http://www.w3.org/1999/xlink" x="0px" y="0px"
	 viewBox="0 0 488 488" style="enable-background:new 0 0 488 488;" xml:space="preserve">
<g transform="translate(0 -540.36)">
			<path d="M416.4,612C370.2,565.8,309,540.4,244,540.4S117.8,565.8,71.6,612S0,719.4,0,784.4s25.4,126.2,71.6,172.4
				s107.4,71.6,172.4,71.6s126.2-25.4,172.4-71.6S488,849.4,488,784.4S462.6,658.2,416.4,612z M244,1008.4
				c-123.5,0-224-100.5-224-224s100.5-224,224-224s224,100.5,224,224S367.5,1008.4,244,1008.4z"/>
			<path d="M359,693.6L209.5,720c-3.5,0.6-6.5,2.7-8.5,5.6l-85,130c-2.8,4.2-2.8,9.9,0,14.1c2.4,3.6,6.4,5.8,10.6,5.8
				c0.8,0,1.5-0.1,2.2-0.3l149.5-26.4c3.5-0.6,6.5-2.7,8.5-5.6l85-130c2.9-4.2,2.9-9.9,0.1-14.1C369.1,694.8,364,692.7,359,693.6z
				 M276.6,812.3l-44-70.4l101.7-18L276.6,812.3z"/>
</g>
</svg>
