<?xml version="1.0" encoding="iso-8859-1"?>
<!-- Generator: Adobe Illustrator 19.1.0, SVG Export Plug-In . SVG Version: 6.00 Build 0)  -->
<svg version="1.1" id="Capa_1" xmlns="http://www.w3.org/2000/svg" xmlns:xlink="http://www.w3.org/1999/xlink" x="0px" y="0px"
	 viewBox="0 0 487.1 487.1" style="enable-background:new 0 0 487.1 487.1;" xml:space="preserve">
	<path d="M487.1,14.065c0-0.1,0-0.2,0-0.4c0-0.3-0.1-0.5-0.1-0.8c0-0.2,0-0.4-0.1-0.6c0-0.2-0.1-0.4-0.1-0.5
		c-0.1-0.2-0.1-0.5-0.2-0.7c0-0.1-0.1-0.2-0.1-0.4c-0.1-0.3-0.2-0.6-0.3-0.9c0-0.1-0.1-0.1-0.1-0.2c-0.1-0.3-0.3-0.7-0.5-1
		c0-0.1-0.1-0.2-0.1-0.2c-0.2-0.3-0.3-0.6-0.5-0.9c-0.7-1-1.5-1.9-2.4-2.7c-3.7-4.2-9.8-5.9-15.3-3.6L8.4,190.765
		c-0.1,0.1-0.3,0.1-0.4,0.2c-0.3,0.1-0.5,0.2-0.8,0.4c-0.2,0.1-0.4,0.2-0.6,0.3s-0.4,0.2-0.6,0.4c-0.2,0.1-0.4,0.3-0.6,0.4
		c-0.2,0.1-0.3,0.2-0.5,0.4c-0.2,0.1-0.3,0.3-0.5,0.5c-0.2,0.1-0.3,0.3-0.5,0.4c-0.2,0.2-0.3,0.3-0.5,0.5c-0.1,0.2-0.3,0.3-0.4,0.5
		c-0.1,0.2-0.3,0.4-0.4,0.5c-0.1,0.2-0.3,0.3-0.4,0.5c-0.1,0.2-0.3,0.4-0.4,0.6c-0.1,0.2-0.2,0.3-0.3,0.5c-0.2,0.3-0.3,0.6-0.4,0.9
		c0,0.1-0.1,0.2-0.2,0.3l0,0c-0.2,0.4-0.3,0.8-0.4,1.2c0,0,0,0,0,0.1c-0.1,0.4-0.2,0.8-0.3,1.3c0,0.2-0.1,0.4-0.1,0.6
		c0,0.2-0.1,0.5-0.1,0.7s0,0.4,0,0.6c0,0.2,0,0.5,0,0.7s0,0.4,0,0.6c0,0.2,0,0.5,0,0.7s0.1,0.4,0.1,0.5c0,0.3,0.1,0.5,0.1,0.8
		c0.1,0.3,0.1,0.6,0.2,0.9c0.1,0.2,0.1,0.4,0.2,0.6c0.1,0.3,0.2,0.7,0.4,1l0,0c0.1,0.4,0.3,0.7,0.5,1c0,0.1,0.1,0.2,0.1,0.2
		c0.1,0.3,0.3,0.5,0.5,0.8c0.1,0.1,0.1,0.2,0.2,0.3c0.2,0.3,0.3,0.5,0.5,0.7c0.1,0.1,0.1,0.2,0.2,0.2c0.3,0.3,0.5,0.6,0.8,0.9l0,0
		c0.3,0.3,0.6,0.5,0.9,0.8c0.1,0.1,0.2,0.2,0.3,0.2c0.2,0.2,0.5,0.4,0.7,0.5c0.1,0.1,0.2,0.1,0.3,0.2c0.3,0.2,0.7,0.4,1,0.6
		c0.1,0,0.1,0.1,0.2,0.1c0.3,0.2,0.6,0.3,1,0.5c0.1,0,0.1,0.1,0.2,0.1l185,78.4l78.4,185c0.1,0.4,0.3,0.7,0.5,1
		c0,0.1,0.1,0.2,0.1,0.2c0.2,0.3,0.3,0.5,0.5,0.8c0.1,0.1,0.1,0.2,0.2,0.3c0.2,0.3,0.4,0.5,0.5,0.7c0.1,0.1,0.1,0.2,0.2,0.2
		c0.3,0.3,0.5,0.6,0.8,0.9l0.1,0.1c0.3,0.2,0.5,0.5,0.8,0.7c0.1,0.1,0.2,0.2,0.3,0.2c0.2,0.2,0.5,0.4,0.7,0.5
		c0.1,0.1,0.2,0.1,0.3,0.2c0.3,0.2,0.7,0.4,1,0.6c0.1,0,0.2,0.1,0.2,0.1c0.3,0.2,0.6,0.3,0.9,0.4c0.1,0,0.1,0.1,0.2,0.1
		c0,0,0.1,0,0.1,0.1c0.3,0.1,0.7,0.3,1,0.4h0.1c0.4,0.1,0.7,0.2,1.1,0.3c0.1,0,0.3,0,0.4,0.1c0.3,0,0.5,0.1,0.8,0.1
		c0.1,0,0.3,0,0.4,0c0.4,0,0.7,0.1,1.1,0.1l0,0l0,0l0,0l0,0c0.4,0,0.8,0,1.1-0.1c0.1,0,0.3,0,0.4,0c0.3,0,0.6-0.1,0.8-0.1
		c0.1,0,0.3,0,0.4-0.1c0.4-0.1,0.8-0.2,1.1-0.3c0.1,0,0.1,0,0.2-0.1c0.3-0.1,0.7-0.2,1-0.4c0.1,0,0.1,0,0.2-0.1
		c0.1,0,0.1-0.1,0.2-0.1c0.3-0.1,0.6-0.3,0.9-0.5c0.1,0,0.1-0.1,0.2-0.1c0.3-0.2,0.7-0.4,1-0.6c0.1-0.1,0.2-0.1,0.3-0.2
		c0.2-0.2,0.5-0.3,0.7-0.5c0.1-0.1,0.2-0.2,0.3-0.2c0.3-0.3,0.6-0.5,0.8-0.8l0,0c0.3-0.3,0.5-0.6,0.8-0.9c0.1-0.1,0.1-0.2,0.2-0.3
		c0.2-0.2,0.4-0.5,0.5-0.7c0.1-0.1,0.1-0.2,0.2-0.3c0.2-0.3,0.3-0.5,0.5-0.8c0-0.1,0.1-0.2,0.1-0.2c0.2-0.3,0.3-0.7,0.5-1
		l189.6-458.4c0.3-0.8,0.6-1.7,0.8-2.6c0.1-0.3,0.1-0.7,0.1-1c0-0.1,0-0.2,0-0.3c0-0.4,0-0.7,0.1-1.1c0-0.1,0-0.2,0-0.2
		C487.1,14.665,487.1,14.365,487.1,14.065z M48.6,203.365l370.6-153l-217.8,217.7L48.6,203.365z M284,438.765l-64-151.1l215.3-215.2
		L284,438.765z"/>
</svg>
