<?xml version="1.0" encoding="utf-8"?>
<!-- Generator: Adobe Illustrator 24.0.1, SVG Export Plug-In . SVG Version: 6.00 Build 0)  -->
<svg version="1.1" id="Layer_1" xmlns="http://www.w3.org/2000/svg" xmlns:xlink="http://www.w3.org/1999/xlink" x="0px" y="0px"
	 viewBox="0 0 552 512" style="enable-background:new 0 0 552 512;" xml:space="preserve">
<g>
	<path d="M394.8,71c6.1,0,12.2,0.5,18.2,1.5c25.7,4.3,49.1,17.6,65.9,37.5c16.8,19.9,26.1,45.2,26.1,71.3v6.1
		c0,32.5-13.6,63.7-37.3,85.8l0,0l0,0L277.8,450.5c-0.5,0.4-1.1,0.7-1.8,0.7s-1.3-0.2-1.8-0.7L84.2,273.1
		C60.6,251.1,47,219.8,47,187.3v-6.1c0-26.1,9.3-51.4,26.1-71.3c16.8-19.9,40.3-33.2,65.9-37.5l0.1,0l0.1,0c5.8-1,11.8-1.5,17.7-1.5
		c29.2,0,57.8,11.8,78.2,32.3l0,0l0,0l12.6,12.6l29.4,29.3l28.2-30.5l10.9-11.8C337.8,82.4,365.6,71,394.8,71 M394.8,31
		c-39.6,0-78,15.6-107.1,44L276,87.6L263.4,75C235,46.6,196.1,31,156.8,31c-8.2,0-16.3,0.7-24.4,2C60.1,45.1,7,107.8,7,181.2v6.1h0
		c0,43.6,18.1,85.3,50,115.1l189.9,177.3c7.9,7.4,18.3,11.5,29.1,11.5s21.2-4.1,29.1-11.5L495,302.4c31.9-29.7,50-71.5,50-115.1
		v-6.1C545,107.8,492,45.1,419.6,33C411.3,31.7,403,31,394.8,31L394.8,31z"/>
</g>
</svg>
