<?xml version="1.0" encoding="iso-8859-1"?>
<!-- Generator: Adobe Illustrator 19.0.0, SVG Export Plug-In . SVG Version: 6.00 Build 0)  -->
<svg version="1.1" id="Layer_1" xmlns="http://www.w3.org/2000/svg" xmlns:xlink="http://www.w3.org/1999/xlink" width="20px" x="0px" y="0px"
	 viewBox="0 0 210 210" style="enable-background:new 0 0 210 210;" xml:space="preserve">
<g id="XMLID_27_">
	<path id="XMLID_28_" d="M25,80C11.215,80,0,91.215,0,105s11.215,25,25,25c13.785,0,25-11.215,25-25S38.785,80,25,80z"/>
	<path id="XMLID_30_" d="M105,80c-13.785,0-25,11.215-25,25s11.215,25,25,25c13.785,0,25-11.215,25-25S118.785,80,105,80z"/>
	<path id="XMLID_71_" d="M185,80c-13.785,0-25,11.215-25,25s11.215,25,25,25c13.785,0,25-11.215,25-25S198.785,80,185,80z"/>
</g>

</svg>
