<?xml version="1.0" encoding="utf-8"?>
<!-- Generator: Adobe Illustrator 24.0.1, SVG Export Plug-In . SVG Version: 6.00 Build 0)  -->
<svg version="1.1" id="Layer_1" xmlns="http://www.w3.org/2000/svg" xmlns:xlink="http://www.w3.org/1999/xlink" x="0px" y="0px"
	 viewBox="0 0 24 24" style="enable-background:new 0 0 24 24;" xml:space="preserve">
<style type="text/css">
	.st0{fill-rule:evenodd;clip-rule:evenodd;fill:#030D45;}
</style>
<path class="st0" d="M6.3,1.2c1.6-0.2,3.9-0.3,5.7-0.3s4.1,0.2,5.7,0.3c1.5,0.1,2.7,1.3,2.8,2.8c0.2,2.1,0.4,5.6,0.4,8.2
	c0,2-0.1,4.5-0.3,6.5c-0.1,1-0.1,1.9-0.2,2.5c0,0.3,0,0.6-0.1,0.7l0,0.2l0,0.1l0,0c0,0,0,0-0.9-0.1l0.9,0.1c0,0.3-0.2,0.5-0.4,0.7
	c-0.3,0.1-0.6,0.1-0.8,0l-6.9-3.7c-0.1,0-0.2,0-0.3,0L4.9,23c-0.3,0.1-0.6,0.1-0.8,0c-0.3-0.1-0.4-0.4-0.4-0.7l0.9-0.1
	c-0.9,0.1-0.9,0.1-0.9,0.1l0-0.1l0-0.2c0-0.2,0-0.4-0.1-0.7c-0.1-0.6-0.1-1.5-0.2-2.5c-0.1-2-0.3-4.5-0.3-6.5c0-2.6,0.2-6.1,0.4-8.2
	C3.6,2.6,4.8,1.4,6.3,1.2z M5.3,20.9l5.8-3.1c0.6-0.3,1.3-0.3,1.9,0l5.8,3.1c0-0.6,0.1-1.4,0.2-2.2c0.1-2,0.3-4.5,0.3-6.4
	c0-2.5-0.2-6-0.4-8.1c-0.1-0.7-0.6-1.2-1.2-1.3C16,2.8,13.7,2.6,12,2.6S8,2.8,6.4,2.9C5.8,3,5.3,3.5,5.2,4.2
	c-0.2,2.1-0.4,5.6-0.4,8.1c0,1.9,0.1,4.4,0.3,6.4C5.2,19.5,5.2,20.3,5.3,20.9z"/>
</svg>
