<?xml version="1.0" encoding="utf-8"?>
<!-- Generator: Adobe Illustrator 26.0.2, SVG Export Plug-In . SVG Version: 6.00 Build 0)  -->
<svg version="1.1" id="Layer_1" xmlns="http://www.w3.org/2000/svg" xmlns:xlink="http://www.w3.org/1999/xlink" x="0px" y="0px"
	 viewBox="0 0 24 24" style="enable-background:new 0 0 24 24;" xml:space="preserve">
<style type="text/css">
	.st0{display:none;fill:#00768B;}
	.st1{fill:#262527;}
</style>
<rect class="st0" width="24" height="24"/>
<g>
	<path class="st1" d="M12,0C5.4,0,0,5.4,0,12s5.4,12,12,12s12-5.4,12-12S18.6,0,12,0z M12,22C6.5,22,2,17.5,2,12S6.5,2,12,2
		s10,4.5,10,10S17.5,22,12,22z"/>
	<path class="st1" d="M16.3,6.7L9.4,9C9.4,9,9.4,9,9.3,9.1c-0.1,0-0.1,0.1-0.2,0.1S9.1,9.3,9.1,9.3C9,9.4,9,9.4,9,9.4l-2.2,6.9
		c-0.1,0.3,0,0.6,0.2,0.8c0.1,0.1,0.3,0.2,0.5,0.2c0.1,0,0.2,0,0.2,0l6.9-2.2c0.1,0,0.1-0.1,0.1-0.1c0.1,0,0.1-0.1,0.2-0.1
		s0.1-0.1,0.1-0.2c0-0.1,0.1-0.1,0.1-0.1l2.2-6.9c0.1-0.3,0-0.6-0.2-0.8C16.9,6.7,16.6,6.6,16.3,6.7z M14,12.9L11.1,10l4.3-1.4
		L14,12.9z"/>
</g>
</svg>
