<?xml version="1.0" encoding="utf-8"?>
<!-- Generator: Adobe Illustrator 26.0.2, SVG Export Plug-In . SVG Version: 6.00 Build 0)  -->
<svg version="1.1" id="Layer_1" xmlns="http://www.w3.org/2000/svg" xmlns:xlink="http://www.w3.org/1999/xlink" x="0px" y="0px"
	 viewBox="0 0 24 24" style="enable-background:new 0 0 24 24;" xml:space="preserve">
<style type="text/css">
	.st0{display:none;fill:#00768B;}
	.st1{fill:#262527;stroke:#262527;stroke-width:0.25;stroke-miterlimit:10;}
</style>
<rect class="st0" width="24" height="24"/>
<path class="st1" d="M20,21.5c-0.2,0-0.4-0.1-0.6-0.2L12,14.6l-7.5,6.7c-0.2,0.2-0.6,0.2-0.9,0.2c-0.3-0.2-0.5-0.4-0.5-0.7V3.3
	c0-0.5,0.3-0.8,0.8-0.8h16c0.4,0,0.8,0.3,0.8,0.8v17.4c0,0.3-0.2,0.6-0.5,0.7C20.2,21.5,20.1,21.5,20,21.5z M12,12.8
	c0.2,0,0.4,0.1,0.6,0.2l6.7,5.9V4.1H4.8V19l6.7-5.9C11.6,12.9,11.8,12.8,12,12.8z"/>
</svg>
