<?xml version="1.0" encoding="utf-8"?>
<!-- Generator: Adobe Illustrator 26.0.2, SVG Export Plug-In . SVG Version: 6.00 Build 0)  -->
<svg version="1.1" id="Layer_1" xmlns="http://www.w3.org/2000/svg" xmlns:xlink="http://www.w3.org/1999/xlink" x="0px" y="0px"
	 viewBox="0 0 21 21" style="enable-background:new 0 0 21 21;" xml:space="preserve">
<style type="text/css">
	.st0{display:none;fill:#00768B;}
	.st1{fill:#262527;}
</style>
<rect x="-1.5" y="-1.5" class="st0" width="24" height="24"/>
<path class="st1" d="M20,21c-0.1,0-0.2,0-0.2,0l-4.7-1.3c-1.4,0.7-3,1.1-4.6,1.1c-5.7,0-10.4-4.7-10.4-10.4C0.1,4.7,4.8,0,10.5,0
	c5.7,0,10.4,4.7,10.4,10.4c0,1.7-0.4,3.4-1.3,4.9l1.2,4.6c0.1,0.3,0,0.6-0.2,0.8C20.5,20.9,20.2,21,20,21z M10.5,1.8
	c-4.8,0-8.6,3.9-8.6,8.6c0,4.8,3.9,8.6,8.6,8.6c1.4,0,2.8-0.3,4.1-1c0.2-0.1,0.4-0.1,0.6-0.1l3.6,1l-0.9-3.5c-0.1-0.2,0-0.5,0.1-0.7
	c0.8-1.3,1.2-2.8,1.2-4.4C19.1,5.6,15.3,1.8,10.5,1.8z"/>
</svg>
