<?xml version="1.0" encoding="utf-8"?>
<!-- Generator: Adobe Illustrator 26.0.2, SVG Export Plug-In . SVG Version: 6.00 Build 0)  -->
<svg version="1.1" id="Layer_1" xmlns="http://www.w3.org/2000/svg" xmlns:xlink="http://www.w3.org/1999/xlink" x="0px" y="0px"
	 viewBox="0 0 24 24" style="enable-background:new 0 0 24 24;" xml:space="preserve">
<style type="text/css">
	.st0{display:none;fill:#00768B;}
	.st1{fill:#262527;}
</style>
<rect x="0" class="st0" width="24" height="24"/>
<path class="st1" d="M24,2.8c0-0.1,0-0.2,0-0.3V2.4c0-0.1,0-0.2-0.1-0.3c-0.1,0-0.1-0.1-0.2-0.2c0,0,0,0-0.1,0
	c-0.1-0.1-0.2-0.1-0.3-0.1l0,0c-0.1,0-0.1,0-0.2,0L1,1.3l0,0c-0.4,0-0.8,0.3-0.9,0.8S0,2.9,0.3,3.1l8.3,7.8l2.5,11
	c0.1,0.4,0.4,0.8,0.8,0.8c0.1,0,0.1,0,0.1,0c0.4,0,0.8-0.2,0.9-0.5L23.9,3C23.9,2.9,23.9,2.9,24,2.8L24,2.8z M19.3,3.5L9.6,9.1
	l-6-5.6L19.3,3.5z M12.5,18.9l-1.9-8l9.7-5.5L12.5,18.9z"/>
</svg>
