<?xml version="1.0" encoding="utf-8"?>
<!-- Generator: Adobe Illustrator 26.0.2, SVG Export Plug-In . SVG Version: 6.00 Build 0)  -->
<svg version="1.1" id="Layer_1" xmlns="http://www.w3.org/2000/svg" xmlns:xlink="http://www.w3.org/1999/xlink" x="0px" y="0px"
	 viewBox="0 0 24 24" style="enable-background:new 0 0 24 24;" xml:space="preserve">
<style type="text/css">
	.st0{display:none;fill:#00768B;}
	.st1{fill:#262527;}
</style>
<rect class="st0" width="24" height="24"/>
<g>
	<path class="st1" d="M12,0C5.4,0,0,5.4,0,12s5.4,12,12,12s12-5.4,12-12S18.6,0,12,0z M12,22C6.5,22,2,17.5,2,12S6.5,2,12,2
		s10,4.5,10,10S17.5,22,12,22z"/>
	<path class="st1" d="M9.1,12.7c0.2-0.6-0.1-1.4-0.7-1.6c-0.6-0.2-1.4,0.1-1.6,0.7s0.1,1.4,0.7,1.6C8.2,13.6,8.9,13.3,9.1,12.7z"/>
	<path class="st1" d="M16.5,11.1c-0.6-0.2-1.4,0.1-1.6,0.7c-0.2,0.6,0.1,1.4,0.7,1.6c0.6,0.2,1.4-0.1,1.6-0.7
		C17.4,12,17.1,11.3,16.5,11.1z"/>
	<path class="st1" d="M15,15.4c-1.7,1.7-4.4,1.7-6,0c-0.4-0.4-1-0.4-1.4,0s-0.4,1,0,1.4c1.2,1.2,2.8,1.8,4.4,1.8s3.2-0.6,4.4-1.8
		c0.4-0.4,0.4-1,0-1.4S15.4,15,15,15.4z"/>
</g>
</svg>
