<?xml version="1.0" encoding="utf-8"?>
<!-- Generator: Adobe Illustrator 26.0.2, SVG Export Plug-In . SVG Version: 6.00 Build 0)  -->
<svg version="1.1" id="Layer_1" xmlns="http://www.w3.org/2000/svg" xmlns:xlink="http://www.w3.org/1999/xlink" x="0px" y="0px"
	 viewBox="0 0 28 28" style="enable-background:new 0 0 28 28;" xml:space="preserve">
<style type="text/css">
	.st0{display:none;fill:#00768B;}
	.st1{fill:#262527;}
</style>
<rect x="2" y="3" class="st0" width="24" height="24"/>
<g>
	<path class="st1" d="M14.2,26.2L14.2,26.2c-0.5,0-0.9-0.2-1.3-0.5c-0.7-0.5-8.1-6.1-11-10.2l0,0c-1.4-1.9-2-4.3-1.6-6.7
		c0.6-3.6,3.5-6.4,7-6.9c2.5-0.4,5,0.3,6.8,1.8c1.8-1.5,4.4-2.2,6.8-1.8c3.7,0.6,6.5,3.6,7,7.1c0.3,2-0.1,4.2-1.2,5.8c0,0,0,0,0,0.1
		c-2.8,5.2-10.5,10.2-11.4,10.8C14.9,26,14.5,26.2,14.2,26.2z M3.8,14.1L3.8,14.1c2.5,3.5,8.7,8.3,10.1,9.5c1.4-0.9,8-5.4,10.3-9.8
		c0,0,0-0.1,0.1-0.1c0.8-1.2,1.1-2.7,0.9-4.1c-0.4-2.6-2.3-4.5-4.9-4.9c-2-0.3-4.1,0.4-5.4,1.9c-0.2,0.3-0.6,0.5-1,0.5l0,0
		c-0.4,0-0.7-0.2-1-0.5C11.6,5,9.5,4.3,7.5,4.6C5.3,4.8,3.2,6.8,2.8,9.1C2.5,10.9,2.8,12.6,3.8,14.1C3.8,13.9,3.8,13.9,3.8,14.1z"/>
</g>
</svg>
