<?xml version="1.0" encoding="utf-8"?>
<!-- Generator: Adobe Illustrator 26.0.2, SVG Export Plug-In . SVG Version: 6.00 Build 0)  -->
<svg version="1.1" id="Layer_1" xmlns="http://www.w3.org/2000/svg" xmlns:xlink="http://www.w3.org/1999/xlink" x="0px" y="0px"
	 viewBox="0 0 24 24" style="enable-background:new 0 0 24 24;" xml:space="preserve">
<style type="text/css">
	.st0{display:none;fill:#00768B;}
	.st1{fill:#262527;}
</style>
<rect class="st0" width="24" height="24"/>
<path class="st1" d="M17,4.3L17,4.3l-3.8-3.8c-0.7-0.7-1.8-0.7-2.4,0L7,4.3l0,0l-7,7V12v0.4v3.4v1.6v4.9C0,23.2,0.7,24,1.6,24h5.4
	c0.9,0,1.6-0.7,1.6-1.6v-4.9v-0.5c0-1.8,1.5-3.3,3.3-3.3s3.3,1.5,3.3,3.3v0.5v4.9c0,0.9,0.7,1.6,1.6,1.6h5.4c0.9,0,1.6-0.7,1.6-1.6
	v-4.9v-1.6v-3.4V12v-0.6L17,4.3z"/>
</svg>
