<?xml version="1.0" encoding="utf-8"?>
<!-- Generator: Adobe Illustrator 26.0.2, SVG Export Plug-In . SVG Version: 6.00 Build 0)  -->
<svg version="1.1" id="Layer_1" xmlns="http://www.w3.org/2000/svg" xmlns:xlink="http://www.w3.org/1999/xlink" x="0px" y="0px"
	 viewBox="0 0 24 24" style="enable-background:new 0 0 24 24;" xml:space="preserve">
<style type="text/css">
	.st0{display:none;fill:#00768B;}
	.st1{fill:#262527;}
</style>
<rect class="st0" width="24" height="24"/>
<g>
	<path class="st1" d="M17.1,0H6.9C3.1,0,0,3.1,0,6.9v10.2C0,20.9,3.1,24,6.9,24h10.2c3.8,0,6.9-3.1,6.9-6.9V6.9
		C24,3.1,20.9,0,17.1,0z M22,17.1c0,2.7-2.2,4.9-4.9,4.9H6.9C4.2,22,2,19.8,2,17.1V6.9C2,4.2,4.2,2,6.9,2h10.2C19.8,2,22,4.2,22,6.9
		V17.1z"/>
	<path class="st1" d="M18,11h-5V5.9c0-0.6-0.4-1-1-1s-1,0.4-1,1V11H5.9c-0.6,0-1,0.4-1,1s0.4,1,1,1H11v5c0,0.5,0.4,1,1,1s1-0.5,1-1
		v-5h5c0.5,0,1-0.4,1-1S18.6,11,18,11z"/>
</g>
</svg>
