<svg width="24" height="24" viewBox="0 0 24 24" fill="none" xmlns="http://www.w3.org/2000/svg">
<mask id="path-1-inside-1_106_45" fill="white">
<path fill-rule="evenodd" clip-rule="evenodd" d="M20.9598 19.9828C22.8508 17.8618 24 15.0651 24 12C24 5.37258 18.6274 0 12 0C5.37258 0 0 5.37258 0 12C0 18.6274 5.37258 24 12 24C14.2798 24 16.4111 23.3643 18.2263 22.2604L21.6038 22.9849L20.9598 19.9828Z"/>
</mask>
<path d="M20.9598 19.9828L19.467 18.6518L18.7913 19.4096L19.0043 20.4023L20.9598 19.9828ZM18.2263 22.2604L18.6457 20.3049L17.8673 20.1379L17.1871 20.5516L18.2263 22.2604ZM21.6038 22.9849L21.1843 24.9404L24.2078 25.589L23.5593 22.5654L21.6038 22.9849ZM22 12C22 14.5556 21.044 16.8831 19.467 18.6518L22.4526 21.3138C24.6576 18.8406 26 15.5747 26 12H22ZM12 2C17.5228 2 22 6.47715 22 12H26C26 4.26801 19.732 -2 12 -2V2ZM2 12C2 6.47715 6.47715 2 12 2V-2C4.26801 -2 -2 4.26801 -2 12H2ZM12 22C6.47715 22 2 17.5228 2 12H-2C-2 19.732 4.26801 26 12 26V22ZM17.1871 20.5516C15.6762 21.4704 13.903 22 12 22V26C14.6566 26 17.1459 25.2581 19.2654 23.9692L17.1871 20.5516ZM17.8068 24.2159L21.1843 24.9404L22.0232 21.0294L18.6457 20.3049L17.8068 24.2159ZM23.5593 22.5654L22.9153 19.5633L19.0043 20.4023L19.6482 23.4044L23.5593 22.5654Z" fill="black" mask="url(#path-1-inside-1_106_45)"/>
</svg>
