<svg width="24" height="25" viewBox="0 0 24 25" fill="none" xmlns="http://www.w3.org/2000/svg">
<path fill-rule="evenodd" clip-rule="evenodd" d="M5.99986 12.9956C5.99986 9.68211 8.68651 6.99555 12 6.99555C15.3136 6.99555 17.9999 9.68211 17.9999 12.9956C17.9999 16.3092 15.3136 18.9955 12 18.9955C8.68651 18.9955 5.99986 16.3092 5.99986 12.9956ZM8.25005 12.9956C8.25005 15.0627 9.93294 16.7456 12 16.7456C14.0671 16.7456 15.75 15.0627 15.75 12.9956C15.75 10.9271 14.0671 9.24566 12 9.24566C9.93294 9.24566 8.25005 10.9271 8.25005 12.9956Z" fill="black"/>
<path fill-rule="evenodd" clip-rule="evenodd" d="M7.49997 0.995605H16.5C20.6414 0.995605 24 4.35426 24 8.49565V17.4957C24 21.637 20.6414 24.9957 16.5 24.9957H7.49997C3.35858 24.9957 0 21.637 0 17.4957V8.49565C0 4.35426 3.35858 0.995605 7.49997 0.995605ZM16.5 22.7455C19.3949 22.7455 21.7499 20.3906 21.7499 17.4957V8.49565C21.7499 5.60077 19.3949 3.24548 16.5 3.24548H7.49997C4.60509 3.24548 2.24988 5.60077 2.24988 8.49565V17.4957C2.24988 20.3906 4.60509 22.7455 7.49997 22.7455H16.5Z" fill="black"/>
</svg>
