<svg width="16" height="16" viewBox="0 0 16 16" fill="none" xmlns="http://www.w3.org/2000/svg">
<path d="M14.4843 15.6618L9.47653 10.6683C9.06974 11.0054 8.58577 11.2723 8.02469 11.4689C7.4636 11.6656 6.86744 11.7639 6.23618 11.7639C4.65109 11.7639 3.31498 11.2161 2.22785 10.1204C1.14073 9.02483 0.597168 7.70445 0.597168 6.1593C0.597168 4.61416 1.14424 3.29378 2.23837 2.19814C3.33251 1.10251 4.65109 0.554688 6.1941 0.554688C7.75115 0.554688 9.06974 1.10251 10.1498 2.19814C11.2299 3.29378 11.77 4.61416 11.77 6.1593C11.77 6.77734 11.6788 7.36026 11.4964 7.9081C11.3141 8.45594 11.0406 8.97562 10.6758 9.46726L15.7047 14.4609C15.873 14.6294 15.9572 14.8296 15.9572 15.0614C15.9572 15.2931 15.866 15.4933 15.6836 15.6618C15.5153 15.8304 15.3119 15.9147 15.0735 15.9147C14.835 15.9147 14.6386 15.8304 14.4843 15.6618ZM6.21514 10.0783C7.29528 10.0783 8.21406 9.69555 8.9715 8.92998C9.729 8.16448 10.1078 7.2409 10.1078 6.1593C10.1078 5.0777 9.729 4.15414 8.9715 3.3886C8.21406 2.62305 7.29528 2.24028 6.21514 2.24028C5.10698 2.24028 4.17065 2.62305 3.40616 3.3886C2.64166 4.15414 2.25942 5.0777 2.25942 6.1593C2.25942 7.2409 2.64166 8.16448 3.40616 8.92998C4.17065 9.69555 5.10698 10.0783 6.21514 10.0783Z" fill="#ABABAB"/>
</svg>
