<svg width="24" height="24" viewBox="0 0 24 24" fill="none" xmlns="http://www.w3.org/2000/svg">
<path fill-rule="evenodd" clip-rule="evenodd" d="M12 2.18182C6.57757 2.18182 2.18182 6.57757 2.18182 12C2.18182 14.6031 3.19486 16.9696 4.84821 18.7267C5.57355 17.3231 7.03836 16.3636 8.72727 16.3636H15.2727C16.9616 16.3636 18.4264 17.3231 19.1518 18.7267C20.8051 16.9696 21.8182 14.6031 21.8182 12C21.8182 6.57757 17.4224 2.18182 12 2.18182ZM17.392 20.2064C17.1584 19.2529 16.2982 18.5455 15.2727 18.5455H8.72727C7.7018 18.5455 6.84157 19.2529 6.60802 20.2064C8.15561 21.2253 10.0086 21.8182 12 21.8182C13.9914 21.8182 15.8444 21.2253 17.392 20.2064ZM0 12C0 5.37258 5.37258 0 12 0C18.6274 0 24 5.37258 24 12C24 18.6274 18.6274 24 12 24C5.37258 24 0 18.6274 0 12ZM12 6.54545C10.1925 6.54545 8.72727 8.0107 8.72727 9.81818C8.72727 11.6257 10.1925 13.0909 12 13.0909C13.8075 13.0909 15.2727 11.6257 15.2727 9.81818C15.2727 8.0107 13.8075 6.54545 12 6.54545ZM6.54545 9.81818C6.54545 6.80572 8.98754 4.36364 12 4.36364C15.0125 4.36364 17.4545 6.80572 17.4545 9.81818C17.4545 12.8306 15.0125 15.2727 12 15.2727C8.98754 15.2727 6.54545 12.8306 6.54545 9.81818Z" fill="black"/>
</svg>
