<svg xmlns="http://www.w3.org/2000/svg" width="18" height="18" viewBox="0 0 18 18" fill="none">
<path d="M15.9202 3.01319C15.5204 2.60551 15.0456 2.28212 14.5231 2.06147C14.0006 1.84083 13.4406 1.72726 12.875 1.72726C12.3094 1.72726 11.7494 1.84083 11.2268 2.06147C10.7043 2.28212 10.2296 2.60551 9.82977 3.01319L8.99997 3.85886L8.17017 3.01319C7.36252 2.1901 6.26713 1.72769 5.12495 1.72769C3.98277 1.72769 2.88737 2.1901 2.07973 3.01319C1.27209 3.83628 0.818359 4.95263 0.818359 6.11665C0.818359 7.28068 1.27209 8.39703 2.07973 9.22012L2.90953 10.0658L8.99997 16.2727L15.0904 10.0658L15.9202 9.22012C16.3202 8.81263 16.6376 8.32882 16.8541 7.79632C17.0706 7.26381 17.182 6.69306 17.182 6.11665C17.182 5.54025 17.0706 4.96949 16.8541 4.43699C16.6376 3.90449 16.3202 3.42067 15.9202 3.01319Z" stroke="#767676" stroke-width="1.5" stroke-linecap="round" stroke-linejoin="round"/>
</svg>