<svg xmlns="http://www.w3.org/2000/svg" width="256" height="256" viewBox="0 0 100 100"><rect width="100" height="100" rx="0" fill="#4a90e2"></rect><path fill="#ffffff" d="M28.05 40.27L28.05 40.27Q28.73 39.96 30.19 39.55Q31.65 39.15 33.14 39.15L33.14 39.15Q35.74 39.15 37.48 39.93Q39.21 40.70 39.58 42.19L39.58 42.19Q40.27 44.73 40.85 46.93Q41.44 49.13 42.00 51.15Q42.56 53.16 43.09 55.15Q43.61 57.13 44.11 59.30L44.11 59.30L44.42 59.30Q44.98 55.52 45.41 52.08Q45.85 48.64 46.22 45.32Q46.59 42.00 46.96 38.75Q47.33 35.49 47.71 32.14L47.71 32.14Q50 30.84 52.60 30.84L52.60 30.84Q54.90 30.84 56.57 31.83Q58.25 32.83 58.25 35.18L58.25 35.18Q58.25 36.55 57.97 39.06Q57.69 41.57 57.22 44.67Q56.76 47.77 56.14 51.18Q55.52 54.59 54.84 57.69Q54.15 60.79 53.44 63.30Q52.73 65.81 52.11 67.17L52.11 67.17Q51.18 68.04 49.07 68.60Q46.96 69.16 44.73 69.16L44.73 69.16Q41.82 69.16 39.80 68.38Q37.79 67.61 37.35 66.18L37.35 66.18Q36.55 63.70 35.62 60.29Q34.69 56.88 33.63 52.79L33.63 52.79Q32.76 56.82 31.83 60.66Q30.90 64.51 30.16 67.17L30.16 67.17Q29.23 68.04 27.37 68.60Q25.51 69.16 23.28 69.16L23.28 69.16Q20.49 69.16 18.22 68.38Q15.96 67.61 15.28 66.18L15.28 66.18Q14.72 65.07 14.07 62.87Q13.42 60.66 12.74 57.84Q12.06 55.02 11.34 51.74Q10.63 48.45 10.04 45.16Q9.45 41.88 8.96 38.75Q8.46 35.62 8.21 33.01L8.21 33.01Q9.08 32.21 10.63 31.52Q12.18 30.84 13.98 30.84L13.98 30.84Q16.33 30.84 17.85 31.87Q19.37 32.89 19.74 35.31L19.74 35.31Q20.74 41.63 21.39 45.85Q22.04 50.06 22.44 52.76Q22.84 55.46 23.03 56.94Q23.22 58.43 23.40 59.30L23.40 59.30L23.71 59.30Q24.27 56.82 24.77 54.71Q25.26 52.60 25.79 50.47Q26.32 48.33 26.87 45.88Q27.43 43.43 28.05 40.27ZM69.96 68.85L69.96 68.85Q67.30 68.85 65.75 67.30Q64.20 65.75 64.20 63.08L64.20 63.08L64.20 36.86Q64.20 34.19 65.75 32.64Q67.30 31.09 69.96 31.09L69.96 31.09L90.42 31.09Q90.86 31.77 91.20 32.83Q91.54 33.88 91.54 35.18L91.54 35.18Q91.54 37.48 90.55 38.53Q89.56 39.58 87.82 39.58L87.82 39.58L74.74 39.58L74.74 45.35L88.69 45.35Q89.12 46.03 89.46 47.09Q89.80 48.14 89.80 49.44L89.80 49.44Q89.80 51.74 88.81 52.76Q87.82 53.78 86.08 53.78L86.08 53.78L74.74 53.78L74.74 60.29L90.67 60.29Q91.11 60.97 91.45 62.09Q91.79 63.21 91.79 64.51L91.79 64.51Q91.79 66.80 90.80 67.83Q89.80 68.85 88.07 68.85L88.07 68.85L69.96 68.85Z"></path></svg>