<svg width="24" height="24" viewBox="0 0 24 24" fill="none" xmlns="http://www.w3.org/2000/svg">
<path d="M16.792 1.904C15.8839 1.87493 14.981 2.05109 14.1505 2.41935C13.3199 2.78762 12.5831 3.33851 11.995 4.031C11.4074 3.34053 10.6721 2.79091 9.84356 2.42276C9.01499 2.0546 8.1143 1.87732 7.20801 1.904C5.36288 1.97615 3.62139 2.77599 2.36435 4.1286C1.10731 5.48121 0.437007 7.27654 0.500013 9.122C0.500013 12.732 3.05001 14.949 5.51501 17.092C5.79801 17.338 6.08401 17.586 6.36801 17.839L7.39501 18.757C8.51505 19.8228 9.68928 20.8301 10.913 21.775C11.2368 21.9846 11.6143 22.0962 12 22.0962C12.3857 22.0962 12.7632 21.9846 13.087 21.775C14.3497 20.8013 15.5601 19.7615 16.713 18.66L17.635 17.836C17.928 17.576 18.225 17.317 18.52 17.062C20.854 15.037 23.5 12.742 23.5 9.122C23.563 7.27654 22.8927 5.48121 21.6357 4.1286C20.3786 2.77599 18.6371 1.97615 16.792 1.904Z" fill="#ED4956"/>
</svg>
