<svg width="16" height="16" viewBox="0 0 16 16" fill="none" xmlns="http://www.w3.org/2000/svg">
<path d="M8.00267 15.0027C11.8687 15.0027 15.0027 11.8687 15.0027 8.00267C15.0027 4.13668 11.8687 1.00267 8.00267 1.00267C4.13668 1.00267 1.00267 4.13668 1.00267 8.00267C1.00267 11.8687 4.13668 15.0027 8.00267 15.0027Z" stroke="black" stroke-width="1.33333" stroke-miterlimit="10" stroke-linecap="round"/>
<path d="M12.5287 13.3427C12.2773 12.7077 11.8696 12.1466 11.3433 11.7113C10.8838 11.3688 10.3259 11.1839 9.75267 11.184H6.25334C5.68018 11.184 5.12232 11.3689 4.66267 11.7113C4.13641 12.1467 3.72849 12.7078 3.47667 13.3427" stroke="black" stroke-width="1.33333" stroke-miterlimit="10" stroke-linecap="round"/>
<path d="M8.004 9.218C9.51689 9.218 10.7433 7.99156 10.7433 6.47867C10.7433 4.96578 9.51689 3.73933 8.004 3.73933C6.4911 3.73933 5.26466 4.96578 5.26466 6.47867C5.26466 7.99156 6.4911 9.218 8.004 9.218Z" stroke="black" stroke-width="1.33333" stroke-miterlimit="10" stroke-linecap="round"/>
</svg>
