<svg width="16" height="16" viewBox="0 0 16 16" fill="none" xmlns="http://www.w3.org/2000/svg">
<path d="M8 13.7567C11.1793 13.7567 13.7567 11.1793 13.7567 8C13.7567 4.82068 11.1793 2.24333 8 2.24333C4.82068 2.24333 2.24333 4.82068 2.24333 8C2.24333 11.1793 4.82068 13.7567 8 13.7567Z" stroke="black" stroke-width="1.33333" stroke-linecap="round" stroke-linejoin="round"/>
<path d="M12.9853 5.11866C12.927 5.01512 12.8912 4.90046 12.8802 4.78215C12.8692 4.66383 12.8832 4.54453 12.9213 4.43199L13.1533 3.72533L12.2753 2.84666L11.5673 3.07866C11.4548 3.11681 11.3355 3.13083 11.2172 3.11981C11.0989 3.10878 10.9842 3.07295 10.8807 3.01466M9.488 2.43733C9.37362 2.40535 9.26725 2.34964 9.17582 2.27383C9.08439 2.19802 9.00995 2.10381 8.95734 1.99733L8.62 1.33333H7.38L7.04334 1.99733C6.99072 2.10381 6.91628 2.19802 6.82485 2.27383C6.73342 2.34964 6.62705 2.40535 6.51267 2.43733H9.488ZM6.512 13.5627C6.62639 13.5946 6.73275 13.6504 6.82418 13.7262C6.91561 13.802 6.99006 13.8962 7.04267 14.0027L7.37934 14.6667H8.62067L8.95734 14.0027C9.00995 13.8962 9.08439 13.802 9.17582 13.7262C9.26725 13.6504 9.37362 13.5946 9.488 13.5627H6.512ZM2.43734 6.51199C2.40535 6.62638 2.34965 6.73275 2.27384 6.82418C2.19803 6.91561 2.10382 6.99005 1.99734 7.04266L1.33334 7.37999V8.62133L1.99734 8.958C2.10382 9.01061 2.19803 9.08505 2.27384 9.17648C2.34965 9.26791 2.40535 9.37428 2.43734 9.48866V6.51199ZM13.5627 9.488C13.5947 9.37361 13.6504 9.26724 13.7262 9.17581C13.802 9.08438 13.8962 9.00994 14.0027 8.95733L14.6667 8.62V7.37999L14.0027 7.04333C13.8962 6.99072 13.802 6.91627 13.7262 6.82484C13.6504 6.73341 13.5947 6.62705 13.5627 6.51266V9.488ZM5.11867 3.01466C5.01513 3.07295 4.90046 3.10878 4.78215 3.11981C4.66384 3.13083 4.54453 3.11681 4.432 3.07866L3.72534 2.84666L2.84667 3.72466L3.07867 4.43266C3.11682 4.54519 3.13084 4.6645 3.11981 4.78281C3.10879 4.90112 3.07296 5.01579 3.01467 5.11933L5.11867 3.01466ZM10.8813 12.9853C10.9849 12.927 11.0995 12.8912 11.2179 12.8802C11.3362 12.8692 11.4555 12.8832 11.568 12.9213L12.2747 13.1533L13.1533 12.2753L12.9213 11.5673C12.8832 11.4548 12.8692 11.3355 12.8802 11.2172C12.8912 11.0989 12.927 10.9842 12.9853 10.8807L10.8813 12.9853ZM3.01467 10.8813C3.07296 10.9849 3.10879 11.0995 3.11981 11.2178C3.13084 11.3362 3.11682 11.4555 3.07867 11.568L2.84667 12.2747L3.72467 13.1533L4.43267 12.9213C4.5452 12.8832 4.66451 12.8692 4.78282 12.8802C4.90113 12.8912 5.01579 12.927 5.11934 12.9853L3.01467 10.8813Z" stroke="black" stroke-width="1.33333" stroke-linejoin="round"/>
</svg>
