<?xml version="1.0" encoding="utf-8"?>
<!-- Generator: Adobe Illustrator 24.1.1, SVG Export Plug-In . SVG Version: 6.00 Build 0)  -->
<svg version="1.1" id="Layer_1" xmlns="http://www.w3.org/2000/svg" xmlns:xlink="http://www.w3.org/1999/xlink" x="0px" y="0px"
	 viewBox="0 0 512 512" style="enable-background:new 0 0 512 512;" xml:space="preserve">
<g>
	<path d="M46.5,256v186.2c0,38.6,31.2,69.8,69.8,69.8h279.3c38.6,0,69.8-31.2,69.8-69.8l0-186.2c0-12.9-10.4-23.3-23.3-23.3
		c-12.9,0-23.3,10.4-23.3,23.3v186.2c0,12.8-10.4,23.2-23.3,23.3H116.4c-12.8,0-23.2-10.4-23.3-23.3l0-186.2
		c0-12.9-10.4-23.3-23.3-23.3S46.5,243.1,46.5,256z"/>
	<path d="M365.5,99.9L272.5,6.8c-9.1-9.1-23.8-9.1-32.9,0l-93.1,93.1c-9.1,9.1-9.1,23.8,0,32.9c9.1,9.1,23.8,9.1,32.9,0L256,56.2
		l76.6,76.6c9.1,9.1,23.8,9.1,32.9,0S374.6,109,365.5,99.9L365.5,99.9z"/>
	<path d="M232.7,23.3v302.5c0,12.9,10.4,23.3,23.3,23.3s23.3-10.4,23.3-23.3V23.3C279.3,10.4,268.9,0,256,0S232.7,10.4,232.7,23.3"
		/>
</g>
</svg>
