<svg width="101" height="100" viewBox="0 0 101 100" fill="none" xmlns="http://www.w3.org/2000/svg">
<path fill-rule="evenodd" clip-rule="evenodd" d="M50.2973 12.473C29.6314 12.473 12.8784 29.226 12.8784 49.8919C12.8784 59.8128 16.7393 68.8319 23.0405 75.5288C25.8049 70.1793 31.3876 66.5225 37.8243 66.5225H62.7703C69.207 66.5225 74.7897 70.1793 77.5541 75.5288C83.8553 68.8319 87.7162 59.8128 87.7162 49.8919C87.7162 29.226 70.9632 12.473 50.2973 12.473ZM70.8471 81.168C69.957 77.5341 66.6785 74.8378 62.7703 74.8378H37.8243C33.9161 74.8378 30.6376 77.5341 29.7474 81.168C35.6456 85.0512 42.7076 87.3108 50.2973 87.3108C57.887 87.3108 64.949 85.0512 70.8471 81.168ZM4.56305 49.8919C4.56305 24.6336 25.039 4.15766 50.2973 4.15766C75.5556 4.15766 96.0315 24.6336 96.0315 49.8919C96.0315 75.1502 75.5556 95.6261 50.2973 95.6261C25.039 95.6261 4.56305 75.1502 4.56305 49.8919ZM50.2973 29.1036C43.4087 29.1036 37.8243 34.6879 37.8243 41.5766C37.8243 48.4652 43.4087 54.0495 50.2973 54.0495C57.1859 54.0495 62.7703 48.4652 62.7703 41.5766C62.7703 34.6879 57.1859 29.1036 50.2973 29.1036ZM29.509 41.5766C29.509 30.0955 38.8162 20.7883 50.2973 20.7883C61.7783 20.7883 71.0856 30.0955 71.0856 41.5766C71.0856 53.0576 61.7783 62.3649 50.2973 62.3649C38.8162 62.3649 29.509 53.0576 29.509 41.5766Z" fill="black"/>
</svg>
