<?xml version="1.0" encoding="iso-8859-1"?>
<!-- Generator: Adobe Illustrator 19.0.0, SVG Export Plug-In . SVG Version: 6.00 Build 0)  -->
<svg version="1.1" id="Capa_1" xmlns="http://www.w3.org/2000/svg" xmlns:xlink="http://www.w3.org/1999/xlink" x="0px" y="0px"
	 viewBox="0 0 512 512" style="enable-background:new 0 0 512 512;" xml:space="preserve">
<g>
	<g>
		<path d="M256,0C114.848,0,0,114.848,0,256c0,49.216,13.792,96.48,39.936,137.216L1.152,490.048
			c-2.368,5.952-0.992,12.736,3.552,17.28C7.744,510.368,11.84,512,16,512c2.016,0,4-0.384,5.952-1.152l96.832-38.784
			C159.52,498.208,206.784,512,256,512c141.152,0,256-114.848,256-256S397.152,0,256,0z M256,480
			c-45.632,0-89.312-13.504-126.272-39.072c-2.688-1.888-5.888-2.848-9.088-2.848c-2.016,0-4.032,0.384-5.952,1.152l-69.952,28.032
			l28.032-69.952c1.984-4.992,1.344-10.656-1.696-15.04C45.504,345.312,32,301.632,32,256C32,132.48,132.48,32,256,32
			s224,100.48,224,224S379.52,480,256,480z"/>
	</g>
</g>
<g>
</g>
<g>
</g>
<g>
</g>
<g>
</g>
<g>
</g>
<g>
</g>
<g>
</g>
<g>
</g>
<g>
</g>
<g>
</g>
<g>
</g>
<g>
</g>
<g>
</g>
<g>
</g>
<g>
</g>
</svg>
