<?xml version="1.0" standalone="no"?>
<!DOCTYPE svg PUBLIC "-//W3C//DTD SVG 20010904//EN"
 "http://www.w3.org/TR/2001/REC-SVG-20010904/DTD/svg10.dtd">
<svg version="1.0" xmlns="http://www.w3.org/2000/svg"
 width="512.000000pt" height="512.000000pt" viewBox="0 0 512.000000 512.000000"
 preserveAspectRatio="xMidYMid meet">
<metadata>
Created by potrace 1.14, written by Peter Selinger 2001-2017
</metadata>
<g transform="translate(0.000000,512.000000) scale(0.100000,-0.100000)"
fill="#000000" stroke="none">
<path d="M1389 5116 c-2 -2 -26 -6 -54 -10 -206 -24 -421 -99 -606 -212 -35
-21 -66 -41 -69 -44 -3 -3 -23 -18 -45 -34 -227 -167 -419 -424 -518 -691 -31
-85 -68 -218 -73 -265 -2 -19 -8 -57 -13 -85 -12 -59 -9 -2416 2 -2455 4 -14
9 -41 12 -60 16 -144 111 -390 212 -547 228 -359 615 -620 1018 -688 22 -4 54
-9 70 -13 50 -9 2386 -12 2435 -3 25 5 68 12 95 15 134 18 346 93 487 174 162
93 318 223 431 362 20 25 41 50 46 56 28 34 110 169 144 239 46 94 78 180 107
288 48 182 49 194 46 1452 -1 649 -5 1191 -8 1205 -4 14 -9 42 -12 62 -3 21
-15 73 -26 115 -132 501 -516 910 -995 1062 -140 44 -154 48 -210 56 -27 4
-61 10 -75 13 -27 6 -2394 14 -2401 8z m2411 -534 c409 -90 700 -387 786 -802
16 -78 18 -175 18 -1185 0 -605 -3 -1131 -6 -1170 -14 -157 -93 -369 -185
-492 -171 -229 -407 -368 -693 -407 -96 -13 -2241 -15 -2320 -2 -241 39 -409
119 -569 271 -156 148 -251 322 -297 545 -16 78 -18 172 -18 1190 0 608 3
1137 7 1176 37 378 308 717 672 842 60 20 191 49 250 54 17 2 532 3 1145 2
1093 -1 1117 -1 1210 -22z"/>
<path d="M3793 4176 c-131 -43 -215 -154 -220 -290 -9 -289 339 -439 539 -232
189 197 61 522 -212 533 -36 1 -84 -3 -107 -11z"/>
<path d="M2465 3879 c-73 -7 -136 -15 -170 -23 -89 -20 -121 -28 -172 -47
-457 -164 -787 -557 -868 -1032 -16 -95 -22 -306 -11 -357 3 -14 8 -47 11 -75
12 -107 69 -274 135 -401 143 -274 411 -512 694 -619 74 -27 214 -66 256 -70
14 -1 45 -6 70 -10 64 -11 250 -8 334 5 301 47 548 172 759 384 448 452 506
1169 137 1688 -226 318 -571 518 -955 553 -110 10 -149 11 -220 4z m318 -543
c101 -30 125 -41 219 -102 152 -98 275 -258 328 -429 30 -96 34 -132 34 -260
-2 -358 -249 -675 -600 -766 -120 -32 -292 -32 -409 0 -298 80 -518 312 -583
611 -83 381 118 765 477 915 36 15 72 29 80 31 158 40 319 40 454 0z"/>
</g>
</svg>
